<svg xmlns="http://www.w3.org/2000/svg" viewBox="0 0 33.89 39.86"><defs><style>.cls-1{fill:#fff;}.cls-2{fill:#93806f;}</style></defs><g id="レイヤー_2" data-name="レイヤー 2"><g id="info"><rect class="cls-1" width="13.95" height="17.9"/><path class="cls-2" d="M12,2V15.9H2V2H12m2-2H0V17.9H14V0Z"/><rect class="cls-1" y="21.67" width="13.95" height="17.9"/><path class="cls-2" d="M12,23.67v13.9H2V23.67H12m2-2H0v17.9H14V21.67Z"/><rect class="cls-1" x="19.93" width="13.95" height="17.9"/><path class="cls-2" d="M31.89,2V15.9h-10V2h10m2-2h-14V17.9h14V0Z"/><line class="cls-1" x1="18.94" y1="21.96" x2="18.94" y2="39.86"/><rect class="cls-2" x="17.94" y="21.96" width="2" height="17.9"/><line class="cls-1" x1="23.92" y1="24" x2="23.92" y2="37.82"/><rect class="cls-2" x="22.92" y="24" width="2" height="13.82"/><line class="cls-1" x1="28.9" y1="25.61" x2="28.9" y2="36.22"/><rect class="cls-2" x="27.9" y="25.61" width="2" height="10.61"/></g></g></svg>