<svg xmlns="http://www.w3.org/2000/svg" viewBox="0 0 16.17 40.7"><defs><style>.cls-1,.cls-3{fill:#fff;}.cls-2{fill:none;}.cls-2,.cls-3{stroke:#4e4e4e;stroke-miterlimit:10;stroke-width:2px;}.cls-4{fill:#4e4e4e;}</style></defs><g id="Layer_2" data-name="Layer 2"><g id="info"><rect class="cls-1" x="4.39" y="1" width="7.41" height="31.31" rx="2.17"/><rect class="cls-2" x="4.39" y="1" width="7.41" height="31.31" rx="2.17"/><path class="cls-3" d="M15.17,32.62a7.09,7.09,0,1,1-7.08-7.09A7.09,7.09,0,0,1,15.17,32.62Z"/><rect class="cls-1" x="5.14" y="22.19" width="5.86" height="5.65"/><path class="cls-4" d="M12,32.76a3.95,3.95,0,1,1-3.94-3.94A3.94,3.94,0,0,1,12,32.76Z"/><rect class="cls-4" x="6.85" y="11.27" width="2.47" height="20.68" rx="0.62"/><rect class="cls-4" x="7.99" y="16.78" width="4.09" height="2" rx="0.77"/><rect class="cls-4" x="7.99" y="12.5" width="4.09" height="2" rx="0.77"/><rect class="cls-4" x="7.99" y="21.05" width="4.09" height="2" rx="0.77"/><rect class="cls-4" x="7.99" y="8.23" width="4.09" height="2" rx="0.77"/></g></g></svg>